<mxfile host="app.diagrams.net" agent="Mozilla/5.0 (Macintosh; Intel Mac OS X 10.15; rv:136.0) Gecko/20100101 Firefox/136.0" version="26.2.2">
  <diagram id="C5RBs43oDa-KdzZeNtuy" name="Page-1">
    <mxGraphModel grid="1" page="1" gridSize="10" guides="1" tooltips="1" connect="1" arrows="1" fold="1" pageScale="1" pageWidth="1169" pageHeight="827" math="0" shadow="0">
      <root>
        <mxCell id="WIyWlLk6GJQsqaUBKTNV-0" />
        <mxCell id="WIyWlLk6GJQsqaUBKTNV-1" parent="WIyWlLk6GJQsqaUBKTNV-0" />
        <mxCell id="zkfFHV4jXpPFQw0GAbJ--17" value="Antental Care Register&#xa;" style="swimlane;fontStyle=0;align=center;verticalAlign=top;childLayout=stackLayout;horizontal=1;startSize=26;horizontalStack=0;resizeParent=1;resizeLast=0;collapsible=1;marginBottom=0;rounded=0;shadow=0;strokeWidth=1;" vertex="1" parent="WIyWlLk6GJQsqaUBKTNV-1">
          <mxGeometry x="320" y="10" width="160" height="190" as="geometry">
            <mxRectangle x="550" y="140" width="160" height="26" as="alternateBounds" />
          </mxGeometry>
        </mxCell>
        <mxCell id="2pSnoorQ7jU5NbnJW7hN-17" value="List MidWives&#xa;" style="text;align=left;verticalAlign=top;spacingLeft=4;spacingRight=4;overflow=hidden;rotatable=0;points=[[0,0.5],[1,0.5]];portConstraint=eastwest;" vertex="1" parent="zkfFHV4jXpPFQw0GAbJ--17">
          <mxGeometry y="26" width="160" height="26" as="geometry" />
        </mxCell>
        <mxCell id="zkfFHV4jXpPFQw0GAbJ--24" value="List mothers" style="text;align=left;verticalAlign=top;spacingLeft=4;spacingRight=4;overflow=hidden;rotatable=0;points=[[0,0.5],[1,0.5]];portConstraint=eastwest;" vertex="1" parent="zkfFHV4jXpPFQw0GAbJ--17">
          <mxGeometry y="52" width="160" height="26" as="geometry" />
        </mxCell>
        <mxCell id="zkfFHV4jXpPFQw0GAbJ--23" value="" style="line;html=1;strokeWidth=1;align=left;verticalAlign=middle;spacingTop=-1;spacingLeft=3;spacingRight=3;rotatable=0;labelPosition=right;points=[];portConstraint=eastwest;" vertex="1" parent="zkfFHV4jXpPFQw0GAbJ--17">
          <mxGeometry y="78" width="160" height="8" as="geometry" />
        </mxCell>
        <mxCell id="zkfFHV4jXpPFQw0GAbJ--19" value="updateRecord()" style="text;align=left;verticalAlign=top;spacingLeft=4;spacingRight=4;overflow=hidden;rotatable=0;points=[[0,0.5],[1,0.5]];portConstraint=eastwest;rounded=0;shadow=0;html=0;" vertex="1" parent="zkfFHV4jXpPFQw0GAbJ--17">
          <mxGeometry y="86" width="160" height="26" as="geometry" />
        </mxCell>
        <mxCell id="zkfFHV4jXpPFQw0GAbJ--20" value="deleteRecord()" style="text;align=left;verticalAlign=top;spacingLeft=4;spacingRight=4;overflow=hidden;rotatable=0;points=[[0,0.5],[1,0.5]];portConstraint=eastwest;rounded=0;shadow=0;html=0;" vertex="1" parent="zkfFHV4jXpPFQw0GAbJ--17">
          <mxGeometry y="112" width="160" height="26" as="geometry" />
        </mxCell>
        <mxCell id="2pSnoorQ7jU5NbnJW7hN-12" value="getRecord()" style="text;align=left;verticalAlign=top;spacingLeft=4;spacingRight=4;overflow=hidden;rotatable=0;points=[[0,0.5],[1,0.5]];portConstraint=eastwest;rounded=0;shadow=0;html=0;" vertex="1" parent="zkfFHV4jXpPFQw0GAbJ--17">
          <mxGeometry y="138" width="160" height="26" as="geometry" />
        </mxCell>
        <mxCell id="zkfFHV4jXpPFQw0GAbJ--18" value="addRecord()" style="text;align=left;verticalAlign=top;spacingLeft=4;spacingRight=4;overflow=hidden;rotatable=0;points=[[0,0.5],[1,0.5]];portConstraint=eastwest;" vertex="1" parent="zkfFHV4jXpPFQw0GAbJ--17">
          <mxGeometry y="164" width="160" height="26" as="geometry" />
        </mxCell>
        <mxCell id="AlexN0f4DzABJnkqQWWl-1" value="" style="swimlane;fontStyle=0;align=center;verticalAlign=top;childLayout=stackLayout;horizontal=1;startSize=26;horizontalStack=0;resizeParent=1;resizeLast=0;collapsible=1;marginBottom=0;rounded=0;shadow=0;strokeWidth=1;" vertex="1" parent="WIyWlLk6GJQsqaUBKTNV-1">
          <mxGeometry x="590" y="80" width="420" height="1020" as="geometry">
            <mxRectangle x="590" y="80" width="160" height="26" as="alternateBounds" />
          </mxGeometry>
        </mxCell>
        <mxCell id="5GUmFoWb-oyWgYCqJT6J-0" value="&lt;b&gt;Record&lt;/b&gt;" style="html=1;whiteSpace=wrap;" vertex="1" parent="AlexN0f4DzABJnkqQWWl-1">
          <mxGeometry y="26" width="420" height="50" as="geometry" />
        </mxCell>
        <mxCell id="rt2ZueH-Ll-2VuPCVGL7-9" value="boolean recordDirectlyCorrected" style="text;align=left;verticalAlign=top;spacingLeft=4;spacingRight=4;overflow=hidden;rotatable=0;points=[[0,0.5],[1,0.5]];portConstraint=eastwest;" vertex="1" parent="AlexN0f4DzABJnkqQWWl-1">
          <mxGeometry y="76" width="420" height="26" as="geometry" />
        </mxCell>
        <mxCell id="AlexN0f4DzABJnkqQWWl-16" value="String gestationalPregnancy (how far along is the parent pregnant)" style="text;align=left;verticalAlign=top;spacingLeft=4;spacingRight=4;overflow=hidden;rotatable=0;points=[[0,0.5],[1,0.5]];portConstraint=eastwest;" vertex="1" parent="AlexN0f4DzABJnkqQWWl-1">
          <mxGeometry y="102" width="420" height="26" as="geometry" />
        </mxCell>
        <mxCell id="rt2ZueH-Ll-2VuPCVGL7-1" value="String patientName" style="text;align=left;verticalAlign=top;spacingLeft=4;spacingRight=4;overflow=hidden;rotatable=0;points=[[0,0.5],[1,0.5]];portConstraint=eastwest;" vertex="1" parent="AlexN0f4DzABJnkqQWWl-1">
          <mxGeometry y="128" width="420" height="26" as="geometry" />
        </mxCell>
        <mxCell id="rt2ZueH-Ll-2VuPCVGL7-4" value="String facilityType" style="text;align=left;verticalAlign=top;spacingLeft=4;spacingRight=4;overflow=hidden;rotatable=0;points=[[0,0.5],[1,0.5]];portConstraint=eastwest;" vertex="1" parent="AlexN0f4DzABJnkqQWWl-1">
          <mxGeometry y="154" width="420" height="26" as="geometry" />
        </mxCell>
        <mxCell id="rt2ZueH-Ll-2VuPCVGL7-3" value="String subDistrict" style="text;align=left;verticalAlign=top;spacingLeft=4;spacingRight=4;overflow=hidden;rotatable=0;points=[[0,0.5],[1,0.5]];portConstraint=eastwest;" vertex="1" parent="AlexN0f4DzABJnkqQWWl-1">
          <mxGeometry y="180" width="420" height="26" as="geometry" />
        </mxCell>
        <mxCell id="rt2ZueH-Ll-2VuPCVGL7-2" value="String address" style="text;align=left;verticalAlign=top;spacingLeft=4;spacingRight=4;overflow=hidden;rotatable=0;points=[[0,0.5],[1,0.5]];portConstraint=eastwest;" vertex="1" parent="AlexN0f4DzABJnkqQWWl-1">
          <mxGeometry y="206" width="420" height="26" as="geometry" />
        </mxCell>
        <mxCell id="rt2ZueH-Ll-2VuPCVGL7-0" value="String estimatedDueDate" style="text;align=left;verticalAlign=top;spacingLeft=4;spacingRight=4;overflow=hidden;rotatable=0;points=[[0,0.5],[1,0.5]];portConstraint=eastwest;" vertex="1" parent="AlexN0f4DzABJnkqQWWl-1">
          <mxGeometry y="232" width="420" height="26" as="geometry" />
        </mxCell>
        <mxCell id="AlexN0f4DzABJnkqQWWl-8" value="Date date" style="text;align=left;verticalAlign=top;spacingLeft=4;spacingRight=4;overflow=hidden;rotatable=0;points=[[0,0.5],[1,0.5]];portConstraint=eastwest;" vertex="1" parent="AlexN0f4DzABJnkqQWWl-1">
          <mxGeometry y="258" width="420" height="26" as="geometry" />
        </mxCell>
        <mxCell id="AlexN0f4DzABJnkqQWWl-27" value="String facility_zone" style="text;align=left;verticalAlign=top;spacingLeft=4;spacingRight=4;overflow=hidden;rotatable=0;points=[[0,0.5],[1,0.5]];portConstraint=eastwest;rounded=0;shadow=0;html=0;" vertex="1" parent="AlexN0f4DzABJnkqQWWl-1">
          <mxGeometry y="284" width="420" height="26" as="geometry" />
        </mxCell>
        <mxCell id="AlexN0f4DzABJnkqQWWl-33" value="String subdistrict" style="text;align=left;verticalAlign=top;spacingLeft=4;spacingRight=4;overflow=hidden;rotatable=0;points=[[0,0.5],[1,0.5]];portConstraint=eastwest;rounded=0;shadow=0;html=0;" vertex="1" parent="AlexN0f4DzABJnkqQWWl-1">
          <mxGeometry y="310" width="420" height="26" as="geometry" />
        </mxCell>
        <mxCell id="AlexN0f4DzABJnkqQWWl-32" value="String district" style="text;align=left;verticalAlign=top;spacingLeft=4;spacingRight=4;overflow=hidden;rotatable=0;points=[[0,0.5],[1,0.5]];portConstraint=eastwest;rounded=0;shadow=0;html=0;" vertex="1" parent="AlexN0f4DzABJnkqQWWl-1">
          <mxGeometry y="336" width="420" height="26" as="geometry" />
        </mxCell>
        <mxCell id="AlexN0f4DzABJnkqQWWl-12" value="Double bloodPressure" style="text;align=left;verticalAlign=top;spacingLeft=4;spacingRight=4;overflow=hidden;rotatable=0;points=[[0,0.5],[1,0.5]];portConstraint=eastwest;" vertex="1" parent="AlexN0f4DzABJnkqQWWl-1">
          <mxGeometry y="362" width="420" height="26" as="geometry" />
        </mxCell>
        <mxCell id="AlexN0f4DzABJnkqQWWl-18" value="Double Weight" style="text;align=left;verticalAlign=top;spacingLeft=4;spacingRight=4;overflow=hidden;rotatable=0;points=[[0,0.5],[1,0.5]];portConstraint=eastwest;" vertex="1" parent="AlexN0f4DzABJnkqQWWl-1">
          <mxGeometry y="388" width="420" height="26" as="geometry" />
        </mxCell>
        <mxCell id="AlexN0f4DzABJnkqQWWl-15" value="Double fetalHeartBeat" style="text;align=left;verticalAlign=top;spacingLeft=4;spacingRight=4;overflow=hidden;rotatable=0;points=[[0,0.5],[1,0.5]];portConstraint=eastwest;" vertex="1" parent="AlexN0f4DzABJnkqQWWl-1">
          <mxGeometry y="414" width="420" height="26" as="geometry" />
        </mxCell>
        <mxCell id="AlexN0f4DzABJnkqQWWl-22" value="Double regularHeartbeat" style="text;align=left;verticalAlign=top;spacingLeft=4;spacingRight=4;overflow=hidden;rotatable=0;points=[[0,0.5],[1,0.5]];portConstraint=eastwest;" vertex="1" parent="AlexN0f4DzABJnkqQWWl-1">
          <mxGeometry y="440" width="420" height="26" as="geometry" />
        </mxCell>
        <mxCell id="AlexN0f4DzABJnkqQWWl-17" value="Int registrationNumber" style="text;align=left;verticalAlign=top;spacingLeft=4;spacingRight=4;overflow=hidden;rotatable=0;points=[[0,0.5],[1,0.5]];portConstraint=eastwest;" vertex="1" parent="AlexN0f4DzABJnkqQWWl-1">
          <mxGeometry y="466" width="420" height="26" as="geometry" />
        </mxCell>
        <mxCell id="AlexN0f4DzABJnkqQWWl-9" value="Int age" style="text;align=left;verticalAlign=top;spacingLeft=4;spacingRight=4;overflow=hidden;rotatable=0;points=[[0,0.5],[1,0.5]];portConstraint=eastwest;" vertex="1" parent="AlexN0f4DzABJnkqQWWl-1">
          <mxGeometry y="492" width="420" height="26" as="geometry" />
        </mxCell>
        <mxCell id="AlexN0f4DzABJnkqQWWl-31" value="Int Year" style="text;align=left;verticalAlign=top;spacingLeft=4;spacingRight=4;overflow=hidden;rotatable=0;points=[[0,0.5],[1,0.5]];portConstraint=eastwest;rounded=0;shadow=0;html=0;" vertex="1" parent="AlexN0f4DzABJnkqQWWl-1">
          <mxGeometry y="518" width="420" height="26" as="geometry" />
        </mxCell>
        <mxCell id="AlexN0f4DzABJnkqQWWl-25" value="boolean pretestCounseling (did they get info on the test)" style="text;align=left;verticalAlign=top;spacingLeft=4;spacingRight=4;overflow=hidden;rotatable=0;points=[[0,0.5],[1,0.5]];portConstraint=eastwest;rounded=0;shadow=0;html=0;" vertex="1" parent="AlexN0f4DzABJnkqQWWl-1">
          <mxGeometry y="544" width="420" height="26" as="geometry" />
        </mxCell>
        <mxCell id="AlexN0f4DzABJnkqQWWl-30" value="Boolean posttestCounseling (did they get an understanding of the results)" style="text;align=left;verticalAlign=top;spacingLeft=4;spacingRight=4;overflow=hidden;rotatable=0;points=[[0,0.5],[1,0.5]];portConstraint=eastwest;rounded=0;shadow=0;html=0;" vertex="1" parent="AlexN0f4DzABJnkqQWWl-1">
          <mxGeometry y="570" width="420" height="26" as="geometry" />
        </mxCell>
        <mxCell id="AlexN0f4DzABJnkqQWWl-29" value="boolean testResults (pos/neg)" style="text;align=left;verticalAlign=top;spacingLeft=4;spacingRight=4;overflow=hidden;rotatable=0;points=[[0,0.5],[1,0.5]];portConstraint=eastwest;rounded=0;shadow=0;html=0;" vertex="1" parent="AlexN0f4DzABJnkqQWWl-1">
          <mxGeometry y="596" width="420" height="26" as="geometry" />
        </mxCell>
        <mxCell id="AlexN0f4DzABJnkqQWWl-26" value="Boolean VDRL (syphilis)" style="text;align=left;verticalAlign=top;spacingLeft=4;spacingRight=4;overflow=hidden;rotatable=0;points=[[0,0.5],[1,0.5]];portConstraint=eastwest;rounded=0;shadow=0;html=0;" vertex="1" parent="AlexN0f4DzABJnkqQWWl-1">
          <mxGeometry y="622" width="420" height="26" as="geometry" />
        </mxCell>
        <mxCell id="rt2ZueH-Ll-2VuPCVGL7-5" value="Boolean sicklingBlood" style="text;align=left;verticalAlign=top;spacingLeft=4;spacingRight=4;overflow=hidden;rotatable=0;points=[[0,0.5],[1,0.5]];portConstraint=eastwest;" vertex="1" parent="AlexN0f4DzABJnkqQWWl-1">
          <mxGeometry y="648" width="420" height="26" as="geometry" />
        </mxCell>
        <mxCell id="rt2ZueH-Ll-2VuPCVGL7-6" value="String bloodGroup" style="text;align=left;verticalAlign=top;spacingLeft=4;spacingRight=4;overflow=hidden;rotatable=0;points=[[0,0.5],[1,0.5]];portConstraint=eastwest;" vertex="1" parent="AlexN0f4DzABJnkqQWWl-1">
          <mxGeometry y="674" width="420" height="26" as="geometry" />
        </mxCell>
        <mxCell id="a72OnKSI6_tdN4viFXqn-0" value="String sicklingType" style="text;align=left;verticalAlign=top;spacingLeft=4;spacingRight=4;overflow=hidden;rotatable=0;points=[[0,0.5],[1,0.5]];portConstraint=eastwest;" vertex="1" parent="AlexN0f4DzABJnkqQWWl-1">
          <mxGeometry y="700" width="420" height="26" as="geometry" />
        </mxCell>
        <mxCell id="a72OnKSI6_tdN4viFXqn-1" value="Double hgAt36Wks" style="text;align=left;verticalAlign=top;spacingLeft=4;spacingRight=4;overflow=hidden;rotatable=0;points=[[0,0.5],[1,0.5]];portConstraint=eastwest;" vertex="1" parent="AlexN0f4DzABJnkqQWWl-1">
          <mxGeometry y="726" width="420" height="26" as="geometry" />
        </mxCell>
        <mxCell id="AlexN0f4DzABJnkqQWWl-28" value="boolean tetanusProtectedNotDosed" style="text;align=left;verticalAlign=top;spacingLeft=4;spacingRight=4;overflow=hidden;rotatable=0;points=[[0,0.5],[1,0.5]];portConstraint=eastwest;rounded=0;shadow=0;html=0;" vertex="1" parent="AlexN0f4DzABJnkqQWWl-1">
          <mxGeometry y="752" width="420" height="26" as="geometry" />
        </mxCell>
        <mxCell id="Pc9R-fYejG8ClkuGs-TP-2" value="int  tetanusVaccine" style="text;align=left;verticalAlign=top;spacingLeft=4;spacingRight=4;overflow=hidden;rotatable=0;points=[[0,0.5],[1,0.5]];portConstraint=eastwest;rounded=0;shadow=0;html=0;" vertex="1" parent="AlexN0f4DzABJnkqQWWl-1">
          <mxGeometry y="778" width="420" height="26" as="geometry" />
        </mxCell>
        <mxCell id="rt2ZueH-Ll-2VuPCVGL7-7" value="int malariaIPTShot" style="text;align=left;verticalAlign=top;spacingLeft=4;spacingRight=4;overflow=hidden;rotatable=0;points=[[0,0.5],[1,0.5]];portConstraint=eastwest;" vertex="1" parent="AlexN0f4DzABJnkqQWWl-1">
          <mxGeometry y="804" width="420" height="26" as="geometry" />
        </mxCell>
        <mxCell id="rt2ZueH-Ll-2VuPCVGL7-8" value="boolean ITN_mosquito_net" style="text;align=left;verticalAlign=top;spacingLeft=4;spacingRight=4;overflow=hidden;rotatable=0;points=[[0,0.5],[1,0.5]];portConstraint=eastwest;" vertex="1" parent="AlexN0f4DzABJnkqQWWl-1">
          <mxGeometry y="830" width="420" height="26" as="geometry" />
        </mxCell>
        <mxCell id="v9pNcspUBoUGKTf-_vcN-41" value="Double hgAtRegistry" style="text;align=left;verticalAlign=top;spacingLeft=4;spacingRight=4;overflow=hidden;rotatable=0;points=[[0,0.5],[1,0.5]];portConstraint=eastwest;" vertex="1" parent="AlexN0f4DzABJnkqQWWl-1">
          <mxGeometry y="856" width="420" height="26" as="geometry" />
        </mxCell>
        <mxCell id="0Z3qHQ39-FBfaN9gWTBt-28" value="ArrayList visits" style="text;align=left;verticalAlign=top;spacingLeft=4;spacingRight=4;overflow=hidden;rotatable=0;points=[[0,0.5],[1,0.5]];portConstraint=eastwest;" vertex="1" parent="AlexN0f4DzABJnkqQWWl-1">
          <mxGeometry y="882" width="420" height="26" as="geometry" />
        </mxCell>
        <mxCell id="0Z3qHQ39-FBfaN9gWTBt-4" value="ArrayList String remarks/complaints" style="text;align=left;verticalAlign=top;spacingLeft=4;spacingRight=4;overflow=hidden;rotatable=0;points=[[0,0.5],[1,0.5]];portConstraint=eastwest;" vertex="1" parent="AlexN0f4DzABJnkqQWWl-1">
          <mxGeometry y="908" width="420" height="26" as="geometry" />
        </mxCell>
        <mxCell id="AlexN0f4DzABJnkqQWWl-3" value="" style="line;html=1;strokeWidth=1;align=left;verticalAlign=middle;spacingTop=-1;spacingLeft=3;spacingRight=3;rotatable=0;labelPosition=right;points=[];portConstraint=eastwest;" vertex="1" parent="AlexN0f4DzABJnkqQWWl-1">
          <mxGeometry y="934" width="420" height="8" as="geometry" />
        </mxCell>
        <mxCell id="Pc9R-fYejG8ClkuGs-TP-1" value="Getters and setters" style="text;align=left;verticalAlign=top;spacingLeft=4;spacingRight=4;overflow=hidden;rotatable=0;points=[[0,0.5],[1,0.5]];portConstraint=eastwest;rounded=0;shadow=0;html=0;" vertex="1" parent="AlexN0f4DzABJnkqQWWl-1">
          <mxGeometry y="942" width="420" height="26" as="geometry" />
        </mxCell>
        <mxCell id="Pc9R-fYejG8ClkuGs-TP-3" value="RecordConstructor (initial visit)" style="text;align=left;verticalAlign=top;spacingLeft=4;spacingRight=4;overflow=hidden;rotatable=0;points=[[0,0.5],[1,0.5]];portConstraint=eastwest;rounded=0;shadow=0;html=0;" vertex="1" parent="AlexN0f4DzABJnkqQWWl-1">
          <mxGeometry y="968" width="420" height="26" as="geometry" />
        </mxCell>
        <mxCell id="AlexN0f4DzABJnkqQWWl-6" value="updateRecordWithLatestVisit()" style="text;align=left;verticalAlign=top;spacingLeft=4;spacingRight=4;overflow=hidden;rotatable=0;points=[[0,0.5],[1,0.5]];portConstraint=eastwest;" vertex="1" parent="AlexN0f4DzABJnkqQWWl-1">
          <mxGeometry y="994" width="420" height="26" as="geometry" />
        </mxCell>
        <mxCell id="2pSnoorQ7jU5NbnJW7hN-0" value="Mother" style="swimlane;fontStyle=0;align=center;verticalAlign=top;childLayout=stackLayout;horizontal=1;startSize=26;horizontalStack=0;resizeParent=1;resizeLast=0;collapsible=1;marginBottom=0;rounded=0;shadow=0;strokeWidth=1;" vertex="1" parent="WIyWlLk6GJQsqaUBKTNV-1">
          <mxGeometry x="260" y="380" width="160" height="372" as="geometry">
            <mxRectangle x="550" y="140" width="160" height="26" as="alternateBounds" />
          </mxGeometry>
        </mxCell>
        <mxCell id="AlexN0f4DzABJnkqQWWl-2" value="String patientName" style="text;align=left;verticalAlign=top;spacingLeft=4;spacingRight=4;overflow=hidden;rotatable=0;points=[[0,0.5],[1,0.5]];portConstraint=eastwest;" vertex="1" parent="2pSnoorQ7jU5NbnJW7hN-0">
          <mxGeometry y="26" width="160" height="26" as="geometry" />
        </mxCell>
        <mxCell id="AlexN0f4DzABJnkqQWWl-14" value="String address" style="text;align=left;verticalAlign=top;spacingLeft=4;spacingRight=4;overflow=hidden;rotatable=0;points=[[0,0.5],[1,0.5]];portConstraint=eastwest;" vertex="1" parent="2pSnoorQ7jU5NbnJW7hN-0">
          <mxGeometry y="52" width="160" height="26" as="geometry" />
        </mxCell>
        <mxCell id="AlexN0f4DzABJnkqQWWl-19" value="String estimatedDueDate" style="text;align=left;verticalAlign=top;spacingLeft=4;spacingRight=4;overflow=hidden;rotatable=0;points=[[0,0.5],[1,0.5]];portConstraint=eastwest;" vertex="1" parent="2pSnoorQ7jU5NbnJW7hN-0">
          <mxGeometry y="78" width="160" height="26" as="geometry" />
        </mxCell>
        <mxCell id="AlexN0f4DzABJnkqQWWl-13" value="Int parity (how many kids you got)" style="text;align=left;verticalAlign=top;spacingLeft=4;spacingRight=4;overflow=hidden;rotatable=0;points=[[0,0.5],[1,0.5]];portConstraint=eastwest;" vertex="1" parent="2pSnoorQ7jU5NbnJW7hN-0">
          <mxGeometry y="104" width="160" height="26" as="geometry" />
        </mxCell>
        <mxCell id="AlexN0f4DzABJnkqQWWl-23" value="String sicklingType" style="text;align=left;verticalAlign=top;spacingLeft=4;spacingRight=4;overflow=hidden;rotatable=0;points=[[0,0.5],[1,0.5]];portConstraint=eastwest;" vertex="1" parent="2pSnoorQ7jU5NbnJW7hN-0">
          <mxGeometry y="130" width="160" height="26" as="geometry" />
        </mxCell>
        <mxCell id="AlexN0f4DzABJnkqQWWl-24" value="Boolean sicklingBlood" style="text;align=left;verticalAlign=top;spacingLeft=4;spacingRight=4;overflow=hidden;rotatable=0;points=[[0,0.5],[1,0.5]];portConstraint=eastwest;" vertex="1" parent="2pSnoorQ7jU5NbnJW7hN-0">
          <mxGeometry y="156" width="160" height="26" as="geometry" />
        </mxCell>
        <mxCell id="AlexN0f4DzABJnkqQWWl-11" value="String bloodGroup" style="text;align=left;verticalAlign=top;spacingLeft=4;spacingRight=4;overflow=hidden;rotatable=0;points=[[0,0.5],[1,0.5]];portConstraint=eastwest;" vertex="1" parent="2pSnoorQ7jU5NbnJW7hN-0">
          <mxGeometry y="182" width="160" height="26" as="geometry" />
        </mxCell>
        <mxCell id="v9pNcspUBoUGKTf-_vcN-42" value="Double hgAt36Wks" style="text;align=left;verticalAlign=top;spacingLeft=4;spacingRight=4;overflow=hidden;rotatable=0;points=[[0,0.5],[1,0.5]];portConstraint=eastwest;" vertex="1" parent="2pSnoorQ7jU5NbnJW7hN-0">
          <mxGeometry y="208" width="160" height="26" as="geometry" />
        </mxCell>
        <mxCell id="2pSnoorQ7jU5NbnJW7hN-1" value="List records" style="text;align=left;verticalAlign=top;spacingLeft=4;spacingRight=4;overflow=hidden;rotatable=0;points=[[0,0.5],[1,0.5]];portConstraint=eastwest;" vertex="1" parent="2pSnoorQ7jU5NbnJW7hN-0">
          <mxGeometry y="234" width="160" height="26" as="geometry" />
        </mxCell>
        <mxCell id="2pSnoorQ7jU5NbnJW7hN-2" value="" style="line;html=1;strokeWidth=1;align=left;verticalAlign=middle;spacingTop=-1;spacingLeft=3;spacingRight=3;rotatable=0;labelPosition=right;points=[];portConstraint=eastwest;" vertex="1" parent="2pSnoorQ7jU5NbnJW7hN-0">
          <mxGeometry y="260" width="160" height="8" as="geometry" />
        </mxCell>
        <mxCell id="2pSnoorQ7jU5NbnJW7hN-4" value="deleteRecord()" style="text;align=left;verticalAlign=top;spacingLeft=4;spacingRight=4;overflow=hidden;rotatable=0;points=[[0,0.5],[1,0.5]];portConstraint=eastwest;rounded=0;shadow=0;html=0;" vertex="1" parent="2pSnoorQ7jU5NbnJW7hN-0">
          <mxGeometry y="268" width="160" height="26" as="geometry" />
        </mxCell>
        <mxCell id="2pSnoorQ7jU5NbnJW7hN-5" value="addRecord()" style="text;align=left;verticalAlign=top;spacingLeft=4;spacingRight=4;overflow=hidden;rotatable=0;points=[[0,0.5],[1,0.5]];portConstraint=eastwest;" vertex="1" parent="2pSnoorQ7jU5NbnJW7hN-0">
          <mxGeometry y="294" width="160" height="26" as="geometry" />
        </mxCell>
        <mxCell id="2pSnoorQ7jU5NbnJW7hN-3" value="updateRecord()" style="text;align=left;verticalAlign=top;spacingLeft=4;spacingRight=4;overflow=hidden;rotatable=0;points=[[0,0.5],[1,0.5]];portConstraint=eastwest;rounded=0;shadow=0;html=0;" vertex="1" parent="2pSnoorQ7jU5NbnJW7hN-0">
          <mxGeometry y="320" width="160" height="26" as="geometry" />
        </mxCell>
        <mxCell id="2pSnoorQ7jU5NbnJW7hN-6" value="MidWife" style="swimlane;fontStyle=0;align=center;verticalAlign=top;childLayout=stackLayout;horizontal=1;startSize=26;horizontalStack=0;resizeParent=1;resizeLast=0;collapsible=1;marginBottom=0;rounded=0;shadow=0;strokeWidth=1;" vertex="1" parent="WIyWlLk6GJQsqaUBKTNV-1">
          <mxGeometry x="20" y="-46" width="160" height="814" as="geometry">
            <mxRectangle x="550" y="140" width="160" height="26" as="alternateBounds" />
          </mxGeometry>
        </mxCell>
        <mxCell id="v9pNcspUBoUGKTf-_vcN-37" value="String name" style="text;align=left;verticalAlign=top;spacingLeft=4;spacingRight=4;overflow=hidden;rotatable=0;points=[[0,0.5],[1,0.5]];portConstraint=eastwest;" vertex="1" parent="2pSnoorQ7jU5NbnJW7hN-6">
          <mxGeometry y="26" width="160" height="26" as="geometry" />
        </mxCell>
        <mxCell id="2pSnoorQ7jU5NbnJW7hN-7" value="String institution" style="text;align=left;verticalAlign=top;spacingLeft=4;spacingRight=4;overflow=hidden;rotatable=0;points=[[0,0.5],[1,0.5]];portConstraint=eastwest;" vertex="1" parent="2pSnoorQ7jU5NbnJW7hN-6">
          <mxGeometry y="52" width="160" height="26" as="geometry" />
        </mxCell>
        <mxCell id="v9pNcspUBoUGKTf-_vcN-1" value="String facilityType" style="text;align=left;verticalAlign=top;spacingLeft=4;spacingRight=4;overflow=hidden;rotatable=0;points=[[0,0.5],[1,0.5]];portConstraint=eastwest;" vertex="1" parent="2pSnoorQ7jU5NbnJW7hN-6">
          <mxGeometry y="78" width="160" height="26" as="geometry" />
        </mxCell>
        <mxCell id="v9pNcspUBoUGKTf-_vcN-3" value="String subDistrict" style="text;align=left;verticalAlign=top;spacingLeft=4;spacingRight=4;overflow=hidden;rotatable=0;points=[[0,0.5],[1,0.5]];portConstraint=eastwest;" vertex="1" parent="2pSnoorQ7jU5NbnJW7hN-6">
          <mxGeometry y="104" width="160" height="26" as="geometry" />
        </mxCell>
        <mxCell id="v9pNcspUBoUGKTf-_vcN-4" value="String district" style="text;align=left;verticalAlign=top;spacingLeft=4;spacingRight=4;overflow=hidden;rotatable=0;points=[[0,0.5],[1,0.5]];portConstraint=eastwest;" vertex="1" parent="2pSnoorQ7jU5NbnJW7hN-6">
          <mxGeometry y="130" width="160" height="26" as="geometry" />
        </mxCell>
        <mxCell id="v9pNcspUBoUGKTf-_vcN-5" value="String region" style="text;align=left;verticalAlign=top;spacingLeft=4;spacingRight=4;overflow=hidden;rotatable=0;points=[[0,0.5],[1,0.5]];portConstraint=eastwest;" vertex="1" parent="2pSnoorQ7jU5NbnJW7hN-6">
          <mxGeometry y="156" width="160" height="26" as="geometry" />
        </mxCell>
        <mxCell id="v9pNcspUBoUGKTf-_vcN-6" value="String eocServices" style="text;align=left;verticalAlign=top;spacingLeft=4;spacingRight=4;overflow=hidden;rotatable=0;points=[[0,0.5],[1,0.5]];portConstraint=eastwest;" vertex="1" parent="2pSnoorQ7jU5NbnJW7hN-6">
          <mxGeometry y="182" width="160" height="26" as="geometry" />
        </mxCell>
        <mxCell id="v9pNcspUBoUGKTf-_vcN-43" value="Boolean otrCorner" style="text;align=left;verticalAlign=top;spacingLeft=4;spacingRight=4;overflow=hidden;rotatable=0;points=[[0,0.5],[1,0.5]];portConstraint=eastwest;" vertex="1" parent="2pSnoorQ7jU5NbnJW7hN-6">
          <mxGeometry y="208" width="160" height="26" as="geometry" />
        </mxCell>
        <mxCell id="v9pNcspUBoUGKTf-_vcN-44" value="Boolean conductsDelivery" style="text;align=left;verticalAlign=top;spacingLeft=4;spacingRight=4;overflow=hidden;rotatable=0;points=[[0,0.5],[1,0.5]];portConstraint=eastwest;" vertex="1" parent="2pSnoorQ7jU5NbnJW7hN-6">
          <mxGeometry y="234" width="160" height="26" as="geometry" />
        </mxCell>
        <mxCell id="v9pNcspUBoUGKTf-_vcN-19" value="Boolean transfusionServices" style="text;align=left;verticalAlign=top;spacingLeft=4;spacingRight=4;overflow=hidden;rotatable=0;points=[[0,0.5],[1,0.5]];portConstraint=eastwest;" vertex="1" parent="2pSnoorQ7jU5NbnJW7hN-6">
          <mxGeometry y="260" width="160" height="26" as="geometry" />
        </mxCell>
        <mxCell id="2pSnoorQ7jU5NbnJW7hN-8" value="" style="line;html=1;strokeWidth=1;align=left;verticalAlign=middle;spacingTop=-1;spacingLeft=3;spacingRight=3;rotatable=0;labelPosition=right;points=[];portConstraint=eastwest;" vertex="1" parent="2pSnoorQ7jU5NbnJW7hN-6">
          <mxGeometry y="286" width="160" height="8" as="geometry" />
        </mxCell>
        <mxCell id="2pSnoorQ7jU5NbnJW7hN-9" value="setName()" style="text;align=left;verticalAlign=top;spacingLeft=4;spacingRight=4;overflow=hidden;rotatable=0;points=[[0,0.5],[1,0.5]];portConstraint=eastwest;rounded=0;shadow=0;html=0;" vertex="1" parent="2pSnoorQ7jU5NbnJW7hN-6">
          <mxGeometry y="294" width="160" height="26" as="geometry" />
        </mxCell>
        <mxCell id="v9pNcspUBoUGKTf-_vcN-39" value="getName()" style="text;align=left;verticalAlign=top;spacingLeft=4;spacingRight=4;overflow=hidden;rotatable=0;points=[[0,0.5],[1,0.5]];portConstraint=eastwest;rounded=0;shadow=0;html=0;" vertex="1" parent="2pSnoorQ7jU5NbnJW7hN-6">
          <mxGeometry y="320" width="160" height="26" as="geometry" />
        </mxCell>
        <mxCell id="v9pNcspUBoUGKTf-_vcN-38" value="setInstitution()" style="text;align=left;verticalAlign=top;spacingLeft=4;spacingRight=4;overflow=hidden;rotatable=0;points=[[0,0.5],[1,0.5]];portConstraint=eastwest;rounded=0;shadow=0;html=0;" vertex="1" parent="2pSnoorQ7jU5NbnJW7hN-6">
          <mxGeometry y="346" width="160" height="26" as="geometry" />
        </mxCell>
        <mxCell id="v9pNcspUBoUGKTf-_vcN-18" value="getInstitution()" style="text;align=left;verticalAlign=top;spacingLeft=4;spacingRight=4;overflow=hidden;rotatable=0;points=[[0,0.5],[1,0.5]];portConstraint=eastwest;rounded=0;shadow=0;html=0;" vertex="1" parent="2pSnoorQ7jU5NbnJW7hN-6">
          <mxGeometry y="372" width="160" height="26" as="geometry" />
        </mxCell>
        <mxCell id="2pSnoorQ7jU5NbnJW7hN-10" value="setFacilityType()" style="text;align=left;verticalAlign=top;spacingLeft=4;spacingRight=4;overflow=hidden;rotatable=0;points=[[0,0.5],[1,0.5]];portConstraint=eastwest;rounded=0;shadow=0;html=0;" vertex="1" parent="2pSnoorQ7jU5NbnJW7hN-6">
          <mxGeometry y="398" width="160" height="26" as="geometry" />
        </mxCell>
        <mxCell id="v9pNcspUBoUGKTf-_vcN-17" value="getFacilityType()" style="text;align=left;verticalAlign=top;spacingLeft=4;spacingRight=4;overflow=hidden;rotatable=0;points=[[0,0.5],[1,0.5]];portConstraint=eastwest;rounded=0;shadow=0;html=0;" vertex="1" parent="2pSnoorQ7jU5NbnJW7hN-6">
          <mxGeometry y="424" width="160" height="26" as="geometry" />
        </mxCell>
        <mxCell id="2pSnoorQ7jU5NbnJW7hN-11" value="setDistrict()" style="text;align=left;verticalAlign=top;spacingLeft=4;spacingRight=4;overflow=hidden;rotatable=0;points=[[0,0.5],[1,0.5]];portConstraint=eastwest;" vertex="1" parent="2pSnoorQ7jU5NbnJW7hN-6">
          <mxGeometry y="450" width="160" height="26" as="geometry" />
        </mxCell>
        <mxCell id="v9pNcspUBoUGKTf-_vcN-16" value="getDistrict()" style="text;align=left;verticalAlign=top;spacingLeft=4;spacingRight=4;overflow=hidden;rotatable=0;points=[[0,0.5],[1,0.5]];portConstraint=eastwest;" vertex="1" parent="2pSnoorQ7jU5NbnJW7hN-6">
          <mxGeometry y="476" width="160" height="26" as="geometry" />
        </mxCell>
        <mxCell id="v9pNcspUBoUGKTf-_vcN-10" value="setSubDistrict()" style="text;align=left;verticalAlign=top;spacingLeft=4;spacingRight=4;overflow=hidden;rotatable=0;points=[[0,0.5],[1,0.5]];portConstraint=eastwest;" vertex="1" parent="2pSnoorQ7jU5NbnJW7hN-6">
          <mxGeometry y="502" width="160" height="26" as="geometry" />
        </mxCell>
        <mxCell id="v9pNcspUBoUGKTf-_vcN-15" value="getSubDistrict()" style="text;align=left;verticalAlign=top;spacingLeft=4;spacingRight=4;overflow=hidden;rotatable=0;points=[[0,0.5],[1,0.5]];portConstraint=eastwest;" vertex="1" parent="2pSnoorQ7jU5NbnJW7hN-6">
          <mxGeometry y="528" width="160" height="26" as="geometry" />
        </mxCell>
        <mxCell id="v9pNcspUBoUGKTf-_vcN-11" value="setRegion()" style="text;align=left;verticalAlign=top;spacingLeft=4;spacingRight=4;overflow=hidden;rotatable=0;points=[[0,0.5],[1,0.5]];portConstraint=eastwest;" vertex="1" parent="2pSnoorQ7jU5NbnJW7hN-6">
          <mxGeometry y="554" width="160" height="26" as="geometry" />
        </mxCell>
        <mxCell id="v9pNcspUBoUGKTf-_vcN-14" value="getRegion()" style="text;align=left;verticalAlign=top;spacingLeft=4;spacingRight=4;overflow=hidden;rotatable=0;points=[[0,0.5],[1,0.5]];portConstraint=eastwest;" vertex="1" parent="2pSnoorQ7jU5NbnJW7hN-6">
          <mxGeometry y="580" width="160" height="26" as="geometry" />
        </mxCell>
        <mxCell id="v9pNcspUBoUGKTf-_vcN-12" value="setEOCServices()" style="text;align=left;verticalAlign=top;spacingLeft=4;spacingRight=4;overflow=hidden;rotatable=0;points=[[0,0.5],[1,0.5]];portConstraint=eastwest;" vertex="1" parent="2pSnoorQ7jU5NbnJW7hN-6">
          <mxGeometry y="606" width="160" height="26" as="geometry" />
        </mxCell>
        <mxCell id="v9pNcspUBoUGKTf-_vcN-13" value="getEOCServices()" style="text;align=left;verticalAlign=top;spacingLeft=4;spacingRight=4;overflow=hidden;rotatable=0;points=[[0,0.5],[1,0.5]];portConstraint=eastwest;" vertex="1" parent="2pSnoorQ7jU5NbnJW7hN-6">
          <mxGeometry y="632" width="160" height="26" as="geometry" />
        </mxCell>
        <mxCell id="v9pNcspUBoUGKTf-_vcN-20" value="setOTRCorner()" style="text;align=left;verticalAlign=top;spacingLeft=4;spacingRight=4;overflow=hidden;rotatable=0;points=[[0,0.5],[1,0.5]];portConstraint=eastwest;" vertex="1" parent="2pSnoorQ7jU5NbnJW7hN-6">
          <mxGeometry y="658" width="160" height="26" as="geometry" />
        </mxCell>
        <mxCell id="v9pNcspUBoUGKTf-_vcN-21" value="getOTRCorner()" style="text;align=left;verticalAlign=top;spacingLeft=4;spacingRight=4;overflow=hidden;rotatable=0;points=[[0,0.5],[1,0.5]];portConstraint=eastwest;" vertex="1" parent="2pSnoorQ7jU5NbnJW7hN-6">
          <mxGeometry y="684" width="160" height="26" as="geometry" />
        </mxCell>
        <mxCell id="v9pNcspUBoUGKTf-_vcN-45" value="setTransfusionServices()" style="text;align=left;verticalAlign=top;spacingLeft=4;spacingRight=4;overflow=hidden;rotatable=0;points=[[0,0.5],[1,0.5]];portConstraint=eastwest;" vertex="1" parent="2pSnoorQ7jU5NbnJW7hN-6">
          <mxGeometry y="710" width="160" height="26" as="geometry" />
        </mxCell>
        <mxCell id="v9pNcspUBoUGKTf-_vcN-46" value="getTransfusionServices()" style="text;align=left;verticalAlign=top;spacingLeft=4;spacingRight=4;overflow=hidden;rotatable=0;points=[[0,0.5],[1,0.5]];portConstraint=eastwest;" vertex="1" parent="2pSnoorQ7jU5NbnJW7hN-6">
          <mxGeometry y="736" width="160" height="26" as="geometry" />
        </mxCell>
        <mxCell id="v9pNcspUBoUGKTf-_vcN-47" value="setConductsDeliveries()" style="text;align=left;verticalAlign=top;spacingLeft=4;spacingRight=4;overflow=hidden;rotatable=0;points=[[0,0.5],[1,0.5]];portConstraint=eastwest;" vertex="1" parent="2pSnoorQ7jU5NbnJW7hN-6">
          <mxGeometry y="762" width="160" height="26" as="geometry" />
        </mxCell>
        <mxCell id="v9pNcspUBoUGKTf-_vcN-48" value="getConductsDeliveries()" style="text;align=left;verticalAlign=top;spacingLeft=4;spacingRight=4;overflow=hidden;rotatable=0;points=[[0,0.5],[1,0.5]];portConstraint=eastwest;" vertex="1" parent="2pSnoorQ7jU5NbnJW7hN-6">
          <mxGeometry y="788" width="160" height="26" as="geometry" />
        </mxCell>
        <mxCell id="2pSnoorQ7jU5NbnJW7hN-14" style="edgeStyle=orthogonalEdgeStyle;rounded=0;orthogonalLoop=1;jettySize=auto;html=1;exitX=0;exitY=0.5;exitDx=0;exitDy=0;entryX=0.5;entryY=0;entryDx=0;entryDy=0;" edge="1" parent="WIyWlLk6GJQsqaUBKTNV-1" source="zkfFHV4jXpPFQw0GAbJ--24" target="2pSnoorQ7jU5NbnJW7hN-6">
          <mxGeometry relative="1" as="geometry">
            <Array as="points">
              <mxPoint x="320" y="50" />
              <mxPoint x="250" y="50" />
              <mxPoint x="250" y="-66" />
              <mxPoint x="100" y="-66" />
            </Array>
          </mxGeometry>
        </mxCell>
        <mxCell id="v9pNcspUBoUGKTf-_vcN-7" value="1..*" style="edgeLabel;html=1;align=center;verticalAlign=middle;resizable=0;points=[];" vertex="1" connectable="0" parent="2pSnoorQ7jU5NbnJW7hN-14">
          <mxGeometry x="0.837" y="-1" relative="1" as="geometry">
            <mxPoint as="offset" />
          </mxGeometry>
        </mxCell>
        <mxCell id="v9pNcspUBoUGKTf-_vcN-36" value="Is Attended To By" style="edgeLabel;html=1;align=center;verticalAlign=middle;resizable=0;points=[];" vertex="1" connectable="0" parent="2pSnoorQ7jU5NbnJW7hN-14">
          <mxGeometry x="0.1724" y="-2" relative="1" as="geometry">
            <mxPoint as="offset" />
          </mxGeometry>
        </mxCell>
        <mxCell id="0Z3qHQ39-FBfaN9gWTBt-5" value="Visit" style="swimlane;fontStyle=0;align=center;verticalAlign=top;childLayout=stackLayout;horizontal=1;startSize=26;horizontalStack=0;resizeParent=1;resizeLast=0;collapsible=1;marginBottom=0;rounded=0;shadow=0;strokeWidth=1;" vertex="1" parent="WIyWlLk6GJQsqaUBKTNV-1">
          <mxGeometry x="330" y="999" width="160" height="242" as="geometry">
            <mxRectangle x="550" y="140" width="160" height="26" as="alternateBounds" />
          </mxGeometry>
        </mxCell>
        <mxCell id="0Z3qHQ39-FBfaN9gWTBt-6" value="Date date" style="text;align=left;verticalAlign=top;spacingLeft=4;spacingRight=4;overflow=hidden;rotatable=0;points=[[0,0.5],[1,0.5]];portConstraint=eastwest;" vertex="1" parent="0Z3qHQ39-FBfaN9gWTBt-5">
          <mxGeometry y="26" width="160" height="26" as="geometry" />
        </mxCell>
        <mxCell id="0Z3qHQ39-FBfaN9gWTBt-7" value="Double BP" style="text;align=left;verticalAlign=top;spacingLeft=4;spacingRight=4;overflow=hidden;rotatable=0;points=[[0,0.5],[1,0.5]];portConstraint=eastwest;" vertex="1" parent="0Z3qHQ39-FBfaN9gWTBt-5">
          <mxGeometry y="52" width="160" height="26" as="geometry" />
        </mxCell>
        <mxCell id="0Z3qHQ39-FBfaN9gWTBt-8" value="Double Weight (Kg)" style="text;align=left;verticalAlign=top;spacingLeft=4;spacingRight=4;overflow=hidden;rotatable=0;points=[[0,0.5],[1,0.5]];portConstraint=eastwest;" vertex="1" parent="0Z3qHQ39-FBfaN9gWTBt-5">
          <mxGeometry y="78" width="160" height="26" as="geometry" />
        </mxCell>
        <mxCell id="0Z3qHQ39-FBfaN9gWTBt-9" value="Double FHt (Fundal Height)" style="text;align=left;verticalAlign=top;spacingLeft=4;spacingRight=4;overflow=hidden;rotatable=0;points=[[0,0.5],[1,0.5]];portConstraint=eastwest;" vertex="1" parent="0Z3qHQ39-FBfaN9gWTBt-5">
          <mxGeometry y="104" width="160" height="26" as="geometry" />
        </mxCell>
        <mxCell id="0Z3qHQ39-FBfaN9gWTBt-10" value="Bool Breastfeeding " style="text;align=left;verticalAlign=top;spacingLeft=4;spacingRight=4;overflow=hidden;rotatable=0;points=[[0,0.5],[1,0.5]];portConstraint=eastwest;" vertex="1" parent="0Z3qHQ39-FBfaN9gWTBt-5">
          <mxGeometry y="130" width="160" height="26" as="geometry" />
        </mxCell>
        <mxCell id="0Z3qHQ39-FBfaN9gWTBt-11" value="String Referred" style="text;align=left;verticalAlign=top;spacingLeft=4;spacingRight=4;overflow=hidden;rotatable=0;points=[[0,0.5],[1,0.5]];portConstraint=eastwest;" vertex="1" parent="0Z3qHQ39-FBfaN9gWTBt-5">
          <mxGeometry y="156" width="160" height="26" as="geometry" />
        </mxCell>
        <mxCell id="0Z3qHQ39-FBfaN9gWTBt-19" value="" style="line;html=1;strokeWidth=1;align=left;verticalAlign=middle;spacingTop=-1;spacingLeft=3;spacingRight=3;rotatable=0;labelPosition=right;points=[];portConstraint=eastwest;" vertex="1" parent="0Z3qHQ39-FBfaN9gWTBt-5">
          <mxGeometry y="182" width="160" height="8" as="geometry" />
        </mxCell>
        <mxCell id="0Z3qHQ39-FBfaN9gWTBt-22" value="addVisit() - returns visit NO" style="text;align=left;verticalAlign=top;spacingLeft=4;spacingRight=4;overflow=hidden;rotatable=0;points=[[0,0.5],[1,0.5]];portConstraint=eastwest;" vertex="1" parent="0Z3qHQ39-FBfaN9gWTBt-5">
          <mxGeometry y="190" width="160" height="26" as="geometry" />
        </mxCell>
        <mxCell id="AlexN0f4DzABJnkqQWWl-21" value="updateVisit()" style="text;align=left;verticalAlign=top;spacingLeft=4;spacingRight=4;overflow=hidden;rotatable=0;points=[[0,0.5],[1,0.5]];portConstraint=eastwest;" vertex="1" parent="0Z3qHQ39-FBfaN9gWTBt-5">
          <mxGeometry y="216" width="160" height="26" as="geometry" />
        </mxCell>
        <mxCell id="v9pNcspUBoUGKTf-_vcN-24" style="edgeStyle=orthogonalEdgeStyle;rounded=0;orthogonalLoop=1;jettySize=auto;html=1;exitX=1;exitY=0;exitDx=0;exitDy=0;" edge="1" parent="WIyWlLk6GJQsqaUBKTNV-1" source="2pSnoorQ7jU5NbnJW7hN-0">
          <mxGeometry relative="1" as="geometry">
            <mxPoint x="588" y="146" as="targetPoint" />
            <Array as="points">
              <mxPoint x="380" y="340" />
              <mxPoint x="530" y="340" />
              <mxPoint x="530" y="146" />
            </Array>
          </mxGeometry>
        </mxCell>
        <mxCell id="v9pNcspUBoUGKTf-_vcN-25" value="&lt;div&gt;1..*&lt;/div&gt;" style="edgeLabel;html=1;align=center;verticalAlign=middle;resizable=0;points=[];" vertex="1" connectable="0" parent="v9pNcspUBoUGKTf-_vcN-24">
          <mxGeometry x="0.9713" y="2" relative="1" as="geometry">
            <mxPoint as="offset" />
          </mxGeometry>
        </mxCell>
        <mxCell id="v9pNcspUBoUGKTf-_vcN-29" value="Has" style="edgeLabel;html=1;align=center;verticalAlign=middle;resizable=0;points=[];" vertex="1" connectable="0" parent="v9pNcspUBoUGKTf-_vcN-24">
          <mxGeometry x="0.3684" relative="1" as="geometry">
            <mxPoint as="offset" />
          </mxGeometry>
        </mxCell>
        <mxCell id="v9pNcspUBoUGKTf-_vcN-30" style="edgeStyle=orthogonalEdgeStyle;rounded=0;orthogonalLoop=1;jettySize=auto;html=1;entryX=0.3;entryY=-0.006;entryDx=0;entryDy=0;entryPerimeter=0;exitX=0;exitY=0.5;exitDx=0;exitDy=0;" edge="1" parent="WIyWlLk6GJQsqaUBKTNV-1" source="zkfFHV4jXpPFQw0GAbJ--24" target="2pSnoorQ7jU5NbnJW7hN-0">
          <mxGeometry relative="1" as="geometry">
            <mxPoint x="260" y="110" as="sourcePoint" />
            <Array as="points">
              <mxPoint x="260" y="75" />
              <mxPoint x="260" y="310" />
              <mxPoint x="318" y="310" />
            </Array>
          </mxGeometry>
        </mxCell>
        <mxCell id="v9pNcspUBoUGKTf-_vcN-31" value="1..*" style="edgeLabel;html=1;align=center;verticalAlign=middle;resizable=0;points=[];" vertex="1" connectable="0" parent="v9pNcspUBoUGKTf-_vcN-30">
          <mxGeometry x="0.9202" relative="1" as="geometry">
            <mxPoint as="offset" />
          </mxGeometry>
        </mxCell>
        <mxCell id="v9pNcspUBoUGKTf-_vcN-40" value="Serves" style="edgeLabel;html=1;align=center;verticalAlign=middle;resizable=0;points=[];" vertex="1" connectable="0" parent="v9pNcspUBoUGKTf-_vcN-30">
          <mxGeometry x="0.7007" relative="1" as="geometry">
            <mxPoint as="offset" />
          </mxGeometry>
        </mxCell>
        <mxCell id="2pSnoorQ7jU5NbnJW7hN-19" style="edgeStyle=orthogonalEdgeStyle;rounded=0;orthogonalLoop=1;jettySize=auto;html=1;exitX=0;exitY=0.5;exitDx=0;exitDy=0;entryX=0.5;entryY=0;entryDx=0;entryDy=0;" edge="1" parent="WIyWlLk6GJQsqaUBKTNV-1" source="AlexN0f4DzABJnkqQWWl-31" target="0Z3qHQ39-FBfaN9gWTBt-5">
          <mxGeometry relative="1" as="geometry">
            <Array as="points">
              <mxPoint x="590" y="590" />
              <mxPoint x="510" y="590" />
              <mxPoint x="510" y="999" />
            </Array>
          </mxGeometry>
        </mxCell>
      </root>
    </mxGraphModel>
  </diagram>
</mxfile>
